<svg width="1280" height="720" xmlns="http://www.w3.org/2000/svg" xmlns:xlink="http://www.w3.org/1999/xlink" overflow="hidden"><defs><clipPath id="clip0"><rect x="0" y="0" width="1280" height="720"/></clipPath></defs><g clip-path="url(#clip0)"><rect x="0" y="0" width="1280" height="720"/><path d="M469.299 350.698C471.581 351.3 473.332 352.599 474.555 354.595 475.778 356.591 476.389 358.999 476.389 361.819 476.389 364.647 475.78 367.056 474.561 369.044 473.342 371.032 471.588 372.327 469.299 372.929L469.018 372.026C470.823 371.425 472.164 370.237 473.043 368.464 473.922 366.69 474.362 364.436 474.362 361.702 474.362 359.061 473.924 356.868 473.049 355.122 472.174 353.376 470.819 352.202 468.983 351.601ZM383.677 350.698 383.993 351.601C382.165 352.202 380.812 353.376 379.933 355.122 379.054 356.868 378.614 359.061 378.614 361.702 378.614 364.436 379.054 366.69 379.933 368.464 380.812 370.237 382.153 371.425 383.958 372.026L383.677 372.929C381.388 372.327 379.634 371.032 378.415 369.044 377.196 367.056 376.587 364.647 376.587 361.819 376.587 358.999 377.198 356.591 378.421 354.595 379.644 352.599 381.396 351.3 383.677 350.698Z" fill="#FFFFFF" fill-rule="evenodd"/><text fill="#FFFFFF" font-family="Cambria Math,Cambria Math_MSFontService,sans-serif" font-weight="400" font-size="24" transform="translate(384.438 369)">𝜓</text><text fill="#FFFFFF" font-family="Cambria Math,Cambria Math_MSFontService,sans-serif" font-weight="400" font-size="18" transform="translate(400.718 374)">1</text><text fill="#FFFFFF" font-family="Cambria Math,Cambria Math_MSFontService,sans-serif" font-weight="400" font-size="24" transform="translate(417.211 369)">+</text><text fill="#FFFFFF" font-family="Cambria Math,Cambria Math_MSFontService,sans-serif" font-weight="400" font-size="24" transform="translate(440.544 369)">𝜓</text><text fill="#FFFFFF" font-family="Cambria Math,Cambria Math_MSFontService,sans-serif" font-weight="400" font-size="18" transform="translate(457.378 374)">2</text><text fill="#FFFFFF" font-family="Cambria Math,Cambria Math_MSFontService,sans-serif" font-weight="400" font-size="18" transform="translate(478.498 360)">2</text><text fill="#FFFFFF" font-family="Cambria Math,Cambria Math_MSFontService,sans-serif" font-weight="400" font-size="24" transform="translate(496.324 369)">=</text><path d="M558.919 350.909 560.723 350.909 560.723 372.717 558.919 372.717ZM523.885 350.909 525.69 350.909 525.69 372.717 523.885 372.717Z" fill="#FFFFFF" fill-rule="evenodd"/><text fill="#FFFFFF" font-family="Cambria Math,Cambria Math_MSFontService,sans-serif" font-weight="400" font-size="24" transform="translate(528.584 369)">𝜓</text><text fill="#FFFFFF" font-family="Cambria Math,Cambria Math_MSFontService,sans-serif" font-weight="400" font-size="18" transform="translate(544.864 374)">1</text><text fill="#FFFFFF" font-family="Cambria Math,Cambria Math_MSFontService,sans-serif" font-weight="400" font-size="18" transform="translate(563.618 360)">2</text><text fill="#FFFFFF" font-family="Cambria Math,Cambria Math_MSFontService,sans-serif" font-weight="400" font-size="24" transform="translate(580.111 369)">+</text><path d="M641.372 350.909 643.177 350.909 643.177 372.717 641.372 372.717ZM606.339 350.909 608.143 350.909 608.143 372.717 606.339 372.717Z" fill="#FFFFFF" fill-rule="evenodd"/><text fill="#FFFFFF" font-family="Cambria Math,Cambria Math_MSFontService,sans-serif" font-weight="400" font-size="24" transform="translate(611.038 369)">𝜓</text><text fill="#FFFFFF" font-family="Cambria Math,Cambria Math_MSFontService,sans-serif" font-weight="400" font-size="18" transform="translate(627.318 374)">1</text><text fill="#FFFFFF" font-family="Cambria Math,Cambria Math_MSFontService,sans-serif" font-weight="400" font-size="18" transform="translate(646.071 360)">∗</text><path d="M694.045 350.909 695.85 350.909 695.85 372.717 694.045 372.717ZM658.459 350.909 660.263 350.909 660.263 372.717 658.459 372.717Z" fill="#FFFFFF" fill-rule="evenodd"/><text fill="#FFFFFF" font-family="Cambria Math,Cambria Math_MSFontService,sans-serif" font-weight="400" font-size="24" transform="translate(663.158 369)">𝜓</text><text fill="#FFFFFF" font-family="Cambria Math,Cambria Math_MSFontService,sans-serif" font-weight="400" font-size="18" transform="translate(679.991 374)">2</text><text fill="#FFFFFF" font-family="Cambria Math,Cambria Math_MSFontService,sans-serif" font-weight="400" font-size="24" transform="translate(704.078 369)">+</text><path d="M765.892 350.909 767.697 350.909 767.697 372.717 765.892 372.717ZM730.305 350.909 732.11 350.909 732.11 372.717 730.305 372.717Z" fill="#FFFFFF" fill-rule="evenodd"/><text fill="#FFFFFF" font-family="Cambria Math,Cambria Math_MSFontService,sans-serif" font-weight="400" font-size="24" transform="translate(735.004 369)">𝜓</text><text fill="#FFFFFF" font-family="Cambria Math,Cambria Math_MSFontService,sans-serif" font-weight="400" font-size="18" transform="translate(751.838 374)">2</text><text fill="#FFFFFF" font-family="Cambria Math,Cambria Math_MSFontService,sans-serif" font-weight="400" font-size="18" transform="translate(770.591 360)">∗</text><path d="M818.012 350.909 819.817 350.909 819.817 372.717 818.012 372.717ZM782.979 350.909 784.783 350.909 784.783 372.717 782.979 372.717Z" fill="#FFFFFF" fill-rule="evenodd"/><text fill="#FFFFFF" font-family="Cambria Math,Cambria Math_MSFontService,sans-serif" font-weight="400" font-size="24" transform="translate(787.678 369)">𝜓</text><text fill="#FFFFFF" font-family="Cambria Math,Cambria Math_MSFontService,sans-serif" font-weight="400" font-size="18" transform="translate(803.958 374)">1</text><text fill="#FFFFFF" font-family="Cambria Math,Cambria Math_MSFontService,sans-serif" font-weight="400" font-size="24" transform="translate(828.044 369)">+</text><path d="M889.859 350.909 891.663 350.909 891.663 372.717 889.859 372.717ZM854.272 350.909 856.077 350.909 856.077 372.717 854.272 372.717Z" fill="#FFFFFF" fill-rule="evenodd"/><text fill="#FFFFFF" font-family="Cambria Math,Cambria Math_MSFontService,sans-serif" font-weight="400" font-size="24" transform="translate(858.971 369)">𝜓</text><text fill="#FFFFFF" font-family="Cambria Math,Cambria Math_MSFontService,sans-serif" font-weight="400" font-size="18" transform="translate(875.804 374)">2</text><text fill="#FFFFFF" font-family="Cambria Math,Cambria Math_MSFontService,sans-serif" font-weight="400" font-size="18" transform="translate(894.558 360)">2</text></g></svg>