<?xml version="1.0" encoding="UTF-8" standalone="no"?>
<!-- Created with Inkscape (http://www.inkscape.org/) -->

<svg
   version="1.1"
   id="svg2"
   width="222.36667"
   height="222.36934"
   viewBox="0 0 222.36667 222.36934"
   xmlns="http://www.w3.org/2000/svg"
   xmlns:svg="http://www.w3.org/2000/svg">
  <defs
     id="defs6" />
  <g
     id="g8"
     transform="matrix(1.3333333,0,0,-1.3333333,-158.996,1441.6)">
    <g
       id="g1212">
      <path
         d="m 119.247,997.811 c 0,46.049 37.331,83.389 83.387,83.389 46.053,0 83.388,-37.34 83.388,-83.389 0,-46.056 -37.335,-83.388 -83.388,-83.388 -46.056,0 -83.387,37.332 -83.387,83.388"
         style="fill:#1a1a1a;fill-opacity:1;fill-rule:nonzero;stroke:none;stroke-width:0.1"
         id="path1048" />
      <path
         d="m 125.501,997.811 c 0,42.599 34.534,77.129 77.133,77.129 42.599,0 77.13,-34.53 77.13,-77.129 0,-42.6 -34.531,-77.132 -77.13,-77.132 -42.599,0 -77.133,34.532 -77.133,77.132"
         style="fill:#ffffff;fill-opacity:1;fill-rule:nonzero;stroke:none;stroke-width:0.1"
         id="path1050" />
      <path
         d="m 130.193,997.811 c 0,40.009 32.434,72.439 72.441,72.439 40.008,0 72.438,-32.43 72.438,-72.439 0,-40.008 -32.43,-72.44 -72.438,-72.44 -40.007,0 -72.441,32.432 -72.441,72.44"
         style="fill:#1a1a1a;fill-opacity:1;fill-rule:nonzero;stroke:none;stroke-width:0.1"
         id="path1052" />
      <path
         d="m 176.344,997.808 v 39.032 l 33.798,-19.52 33.796,-19.512 -33.796,-19.51 -33.798,-19.514 v 39.024"
         style="fill:#ffffff;fill-opacity:1;fill-rule:nonzero;stroke:none;stroke-width:0.1"
         id="path1054" />
    </g>
  </g>
</svg>
