<?xml version="1.0" encoding="UTF-8" standalone="no"?>
<!-- Created with Inkscape (http://www.inkscape.org/) -->

<svg
   version="1.1"
   id="svg2"
   width="222.36401"
   height="222.36267"
   viewBox="0 0 222.36401 222.36267"
   xmlns="http://www.w3.org/2000/svg"
   xmlns:svg="http://www.w3.org/2000/svg">
  <defs
     id="defs6" />
  <g
     id="g8"
     transform="matrix(1.3333333,0,0,-1.3333333,-1218.636,970.28265)">
    <g
       id="g2735">
      <path
         d="m 913.977,644.327 c 0,46.053 37.333,83.385 83.388,83.385 46.055,0 83.385,-37.332 83.385,-83.385 0,-46.057 -37.33,-83.387 -83.385,-83.387 -46.055,0 -83.388,37.33 -83.388,83.387"
         style="fill:#1a1a1a;fill-opacity:1;fill-rule:nonzero;stroke:none;stroke-width:0.1"
         id="path948" />
      <path
         d="m 920.233,644.327 c 0,42.597 34.533,77.129 77.132,77.129 42.595,0 77.135,-34.532 77.135,-77.129 0,-42.6 -34.54,-77.133 -77.135,-77.133 -42.599,0 -77.132,34.533 -77.132,77.133"
         style="fill:#ffffff;fill-opacity:1;fill-rule:nonzero;stroke:none;stroke-width:0.1"
         id="path950" />
      <path
         d="m 924.926,644.327 c 0,40.005 32.433,72.436 72.439,72.436 40.005,0 72.435,-32.431 72.435,-72.436 0,-40.008 -32.43,-72.441 -72.435,-72.441 -40.006,0 -72.439,32.433 -72.439,72.441"
         style="fill:#1a1a1a;fill-opacity:1;fill-rule:nonzero;stroke:none;stroke-width:0.1"
         id="path952" />
      <path
         d="m 1035.71,658.736 c -1.76,4.764 -4.34,8.996 -7.49,12.616 l 6.12,6.524 -15.29,3.587 -15.3,3.585 0.05,-0.165 4.49,-14.877 0.09,-0.3 4.45,-14.743 6.17,6.567 c 1.72,-2.197 3.15,-4.689 4.18,-7.447 5.28,-14.233 -2,-30.106 -16.24,-35.39 -14.231,-5.283 -30.107,2.003 -35.388,16.236 -5.283,14.233 2.001,30.108 16.234,35.391 0.093,0.034 0.188,0.053 0.281,0.088 l -3.607,12.9 c -0.443,-0.148 -0.884,-0.291 -1.325,-0.454 -21.146,-7.844 -31.964,-31.432 -24.119,-52.576 7.848,-21.145 31.435,-31.967 52.574,-24.119 21.15,7.845 31.97,31.434 24.12,52.577"
         style="fill:#ffffff;fill-opacity:1;fill-rule:nonzero;stroke:none;stroke-width:0.1"
         id="path954" />
    </g>
  </g>
</svg>
