<svg width="1282" height="76" xmlns="http://www.w3.org/2000/svg" xmlns:xlink="http://www.w3.org/1999/xlink" overflow="hidden"><defs><clipPath id="clip0"><rect x="-1" y="-1" width="1282" height="76"/></clipPath></defs><g clip-path="url(#clip0)" transform="translate(1 1)"><rect x="0" y="0" width="1280" height="74" fill="#FFFFFF"/><path d="M254.862 15.105C259.9 16.4334 263.769 19.3017 266.469 23.7097 269.169 28.1178 270.519 33.4359 270.519 39.6641 270.519 45.9095 269.173 51.2276 266.482 55.6184 263.791 60.0092 259.917 62.8688 254.862 64.1973L254.241 62.2046C258.227 60.8761 261.19 58.2537 263.131 54.3374 265.072 50.4211 266.042 45.4437 266.042 39.4053 266.042 33.5739 265.076 28.7302 263.144 24.8743 261.211 21.0183 258.218 18.4261 254.164 17.0977ZM64.6285 15.105 65.3273 17.0977C61.2902 18.4261 58.3011 21.0183 56.3602 24.8743 54.4193 28.7302 53.4489 33.5739 53.4489 39.4053 53.4489 45.4437 54.4193 50.4211 56.3602 54.3374 58.3011 58.2537 61.2643 60.8761 65.2496 62.2046L64.6285 64.1973C59.5735 62.8688 55.7003 60.0092 53.0089 55.6184 50.3175 51.2276 48.9718 45.9095 48.9718 39.6641 48.9718 33.4359 50.3218 28.1178 53.0219 23.7097 55.7219 19.3017 59.5908 16.4334 64.6285 15.105Z" fill="#836967" fill-rule="evenodd"/><path d="M88.3922 18.5178 92.4811 18.5178 84.9245 52.8073C87.3571 52.6521 89.4748 51.9145 91.2777 50.5947 93.0806 49.2749 94.4781 47.4633 95.4701 45.1601 96.4622 42.8569 96.9582 40.2647 96.9582 37.3835 96.9582 35.3477 96.639 33.3378 96.0006 31.3537L96.3112 30.0598 100.892 30.0598C101.151 31.3192 101.28 32.7857 101.28 34.4592 101.28 38.3238 100.59 41.8347 99.2096 44.9919 97.8294 48.1491 95.8626 50.6076 93.3092 52.3674 90.7558 54.1272 87.797 55.0588 84.4328 55.1623L82.0519 65.9279 77.963 65.9279 80.3439 55.0847C73.8914 54.4808 70.6652 51.7463 70.6652 46.8811 70.6652 45.5871 70.9499 43.7756 71.5192 41.4465L72.3214 38.2375C72.7528 36.5122 72.9684 35.2787 72.9684 34.5368 72.9684 33.8467 72.8433 33.355 72.5932 33.0617 72.343 32.7684 71.985 32.6218 71.5192 32.6218 70.9844 32.6218 70.4711 32.79 69.9794 33.1264 69.4877 33.4628 68.9917 33.8898 68.4914 34.4074L67.068 32.9841C68.362 31.7592 69.4877 30.8965 70.4452 30.3962 71.4027 29.8959 72.3646 29.6457 73.3307 29.6457 74.6247 29.6457 75.621 30.0339 76.3197 30.8103 77.0185 31.5866 77.3678 32.708 77.3678 34.1745 77.3678 35.2097 77.1522 36.6071 76.7209 38.3669L75.7633 42.197C75.5908 42.8871 75.4269 43.7238 75.2716 44.7072 75.1164 45.6906 75.0387 46.4929 75.0387 47.114 75.0387 48.9427 75.5304 50.31 76.5138 51.2158 77.4972 52.1215 78.9464 52.6693 80.8615 52.8591Z" fill-rule="evenodd"/><text fill="#000000" fill-opacity="0" font-family="Arial,Arial_MSFontService,sans-serif" font-size="47.4102" x="67.068" y="60.0017">𝜓</text><path d="M115.568 41.1593 116.729 41.1593C116.704 41.8576 116.685 42.4828 116.672 43.0351 116.659 43.5873 116.65 44.1237 116.644 44.6442 116.637 45.1647 116.634 45.6789 116.634 46.1867L116.634 60.6593C116.634 61.0529 116.647 61.3925 116.672 61.6781 116.697 61.9638 116.739 62.205 116.796 62.4018 116.853 62.5985 116.929 62.7667 117.024 62.9064 117.12 63.046 117.231 63.1666 117.358 63.2682 117.51 63.4206 117.713 63.538 117.967 63.6205 118.221 63.703 118.545 63.7729 118.938 63.83 119.332 63.8871 119.805 63.9315 120.357 63.9633 120.909 63.995 121.572 64.0172 122.347 64.0299L122.347 65.6867 107.246 65.6867 107.246 64.0299C107.995 64.0045 108.63 63.976 109.15 63.9442 109.671 63.9125 110.115 63.8681 110.483 63.8109 110.851 63.7538 111.146 63.6903 111.369 63.6205 111.591 63.5507 111.784 63.465 111.949 63.3634 112.127 63.2492 112.28 63.1254 112.406 62.9921 112.533 62.8588 112.635 62.6906 112.711 62.4874 112.787 62.2843 112.848 62.0368 112.892 61.7448 112.937 61.4528 112.959 61.091 112.959 60.6593L112.959 47.0055C112.959 46.5104 112.864 46.1613 112.673 45.9582 112.483 45.755 112.21 45.6535 111.854 45.6535 111.461 45.6535 110.877 45.8566 110.102 46.2628 109.328 46.6691 108.325 47.2721 107.093 48.0719 106.928 47.7799 106.776 47.4879 106.636 47.1959 106.497 46.904 106.351 46.6056 106.198 46.3009 107.773 45.4376 109.331 44.5775 110.874 43.7206 112.416 42.8637 113.981 42.0099 115.568 41.1593Z" fill-rule="evenodd"/><text fill="#000000" fill-opacity="0" font-family="Arial,Arial_MSFontService,sans-serif" font-size="24.5273" x="106.198" y="62.6208">1</text><path d="M157.24 23.0207 160.915 23.0207 160.915 37.927 175.019 37.927 175.019 41.3689 160.915 41.3689 160.915 56.2751 157.24 56.2751 157.24 41.3689 143.136 41.3689 143.136 37.927 157.24 37.927Z" fill-rule="evenodd"/><text fill="#000000" fill-opacity="0" font-family="Arial,Arial_MSFontService,sans-serif" font-size="33.2544" x="143.136" y="52.1183">+</text><path d="M212.912 18.5178 217.001 18.5178 209.444 52.8073C211.877 52.6521 213.995 51.9145 215.798 50.5947 217.601 49.2749 218.998 47.4633 219.99 45.1601 220.982 42.8569 221.478 40.2647 221.478 37.3835 221.478 35.3477 221.159 33.3378 220.521 31.3537L220.831 30.0598 225.412 30.0598C225.671 31.3192 225.8 32.7857 225.8 34.4592 225.8 38.3238 225.11 41.8347 223.73 44.9919 222.349 48.1491 220.383 50.6076 217.829 52.3674 215.276 54.1272 212.317 55.0588 208.953 55.1623L206.572 65.9279 202.483 65.9279 204.864 55.0847C198.411 54.4808 195.185 51.7463 195.185 46.8811 195.185 45.5871 195.47 43.7756 196.039 41.4465L196.841 38.2375C197.273 36.5122 197.488 35.2787 197.488 34.5368 197.488 33.8467 197.363 33.355 197.113 33.0617 196.863 32.7684 196.505 32.6218 196.039 32.6218 195.504 32.6218 194.991 32.79 194.499 33.1264 194.008 33.4628 193.512 33.8898 193.011 34.4074L191.588 32.9841C192.882 31.7592 194.008 30.8965 194.965 30.3962 195.923 29.8959 196.885 29.6457 197.851 29.6457 199.145 29.6457 200.141 30.0339 200.84 30.8103 201.538 31.5866 201.888 32.708 201.888 34.1745 201.888 35.2097 201.672 36.6071 201.241 38.3669L200.283 42.197C200.111 42.8871 199.947 43.7238 199.792 44.7072 199.636 45.6906 199.559 46.4929 199.559 47.114 199.559 48.9427 200.05 50.31 201.034 51.2158 202.017 52.1215 203.466 52.6693 205.381 52.8591Z" fill-rule="evenodd"/><text fill="#000000" fill-opacity="0" font-family="Arial,Arial_MSFontService,sans-serif" font-size="47.4102" x="191.588" y="60.0017">𝜓</text><path d="M239.836 41.026C241.156 41.026 242.283 41.1752 243.216 41.4735 244.149 41.7719 244.907 42.1749 245.491 42.6828 246.075 43.1906 246.497 43.7999 246.758 44.5109 247.018 45.2218 247.148 45.9899 247.148 46.8151 247.148 47.3102 247.113 47.7704 247.043 48.1957 246.974 48.621 246.853 49.0399 246.682 49.4525 246.51 49.8651 246.285 50.2809 246.006 50.6999 245.726 51.1188 245.377 51.5631 244.958 52.0329 244.641 52.4391 244.228 52.9088 243.72 53.442 243.213 53.9752 242.657 54.5465 242.054 55.1559 241.451 55.7653 240.819 56.4 240.159 57.0602 239.499 57.7204 238.858 58.3742 238.236 59.0216 237.614 59.6691 237.043 60.2975 236.522 60.9069 236.002 61.5163 235.576 62.0749 235.246 62.5827L242.292 62.5827C242.889 62.5827 243.365 62.5604 243.72 62.516 244.076 62.4716 244.371 62.3732 244.606 62.2208 244.841 62.0685 245.041 61.8368 245.206 61.5258 245.371 61.2147 245.561 60.7863 245.777 60.2404L247.548 60.2404C247.485 61.1417 247.424 62.0495 247.367 62.9635 247.31 63.8776 247.25 64.7853 247.186 65.6867L231.057 65.6867 231.057 64.6964C231.361 64.0109 231.717 63.3349 232.123 62.6684 232.529 62.0019 232.986 61.3258 233.494 60.6403 234.002 59.9547 234.58 59.247 235.227 58.517 235.875 57.787 236.592 57.0285 237.379 56.2414 238.572 55.048 239.544 54.0292 240.293 53.185 241.042 52.3407 241.632 51.5885 242.064 50.9284 242.495 50.2682 242.79 49.6588 242.949 49.1002 243.108 48.5416 243.187 47.945 243.187 47.3102 243.187 46.6627 243.095 46.0661 242.911 45.5202 242.727 44.9743 242.464 44.5109 242.121 44.13 241.778 43.7492 241.343 43.4508 240.816 43.235 240.289 43.0192 239.683 42.9113 238.998 42.9113 237.817 42.9113 236.827 43.2318 236.027 43.8729 235.227 44.5141 234.605 45.444 234.161 46.6627L231.666 46.6627 231.666 42.9494C233.291 42.2765 234.786 41.7877 236.151 41.4831 237.516 41.1784 238.744 41.026 239.836 41.026Z" fill-rule="evenodd"/><text fill="#000000" fill-opacity="0" font-family="Arial,Arial_MSFontService,sans-serif" font-size="24.6606" x="231.057" y="62.6041">2</text><path d="M286.682 10.606C288.003 10.606 289.129 10.7552 290.062 11.0535 290.995 11.3519 291.754 11.7549 292.338 12.2628 292.922 12.7706 293.344 13.3799 293.604 14.0909 293.865 14.8018 293.995 15.5699 293.995 16.3951 293.995 16.8902 293.96 17.3504 293.89 17.7757 293.82 18.201 293.7 18.6199 293.528 19.0325 293.357 19.4451 293.131 19.8609 292.852 20.2799 292.573 20.6988 292.224 21.1431 291.805 21.6129 291.487 22.0191 291.075 22.4888 290.567 23.022 290.059 23.5552 289.504 24.1265 288.901 24.7359 288.298 25.3453 287.666 25.98 287.006 26.6402 286.346 27.3004 285.705 27.9542 285.083 28.6016 284.461 29.2491 283.889 29.8775 283.369 30.4869 282.848 31.0963 282.423 31.6549 282.093 32.1627L289.139 32.1627C289.735 32.1627 290.212 32.1404 290.567 32.096 290.922 32.0516 291.218 31.9532 291.453 31.8008 291.687 31.6485 291.887 31.4168 292.052 31.1058 292.217 30.7947 292.408 30.3663 292.624 29.8204L294.395 29.8204C294.331 30.7217 294.271 31.6295 294.214 32.5435 294.157 33.4576 294.096 34.3653 294.033 35.2667L277.903 35.2667 277.903 34.2764C278.208 33.5909 278.564 32.9149 278.97 32.2484 279.376 31.5819 279.833 30.9058 280.341 30.2203 280.849 29.5347 281.426 28.827 282.074 28.097 282.721 27.367 283.439 26.6085 284.226 25.8214 285.419 24.628 286.39 23.6092 287.139 22.765 287.888 21.9207 288.479 21.1685 288.91 20.5084 289.342 19.8482 289.637 19.2388 289.796 18.6802 289.954 18.1216 290.034 17.525 290.034 16.8902 290.034 16.2427 289.942 15.6461 289.758 15.1002 289.574 14.5543 289.31 14.0909 288.967 13.71 288.625 13.3292 288.19 13.0308 287.663 12.815 287.136 12.5992 286.53 12.4913 285.844 12.4913 284.664 12.4913 283.673 12.8118 282.874 13.4529 282.074 14.0941 281.452 15.024 281.007 16.2427L278.513 16.2427 278.513 12.5294C280.138 11.8565 281.633 11.3677 282.997 11.0631 284.362 10.7584 285.59 10.606 286.682 10.606Z" fill-rule="evenodd"/><text fill="#000000" fill-opacity="0" font-family="Arial,Arial_MSFontService,sans-serif" font-size="24.6606" x="277.903" y="32.1841">2</text><path d="M330.363 43.3098 362.246 43.3098 362.246 46.7517 330.363 46.7517ZM330.363 32.57 362.246 32.57 362.246 36.0119 330.363 36.0119Z" fill-rule="evenodd"/><text fill="#000000" fill-opacity="0" font-family="Arial,Arial_MSFontService,sans-serif" font-size="14.1816" x="330.363" y="44.979">=</text><path d="M465.399 15.5673 469.384 15.5673 469.384 63.7279 465.399 63.7279ZM387.546 15.5673 391.531 15.5673 391.531 63.7279 387.546 63.7279Z" fill="#836967" fill-rule="evenodd"/><path d="M419.972 18.5178 424.061 18.5178 416.504 52.8073C418.937 52.6521 421.055 51.9145 422.858 50.5947 424.661 49.2749 426.058 47.4633 427.05 45.1601 428.042 42.8569 428.538 40.2647 428.538 37.3835 428.538 35.3477 428.219 33.3378 427.581 31.3537L427.891 30.0598 432.472 30.0598C432.731 31.3192 432.86 32.7857 432.86 34.4592 432.86 38.3238 432.17 41.8347 430.79 44.9919 429.409 48.1491 427.443 50.6076 424.889 52.3674 422.336 54.1272 419.377 55.0588 416.013 55.1623L413.632 65.9279 409.543 65.9279 411.924 55.0847C405.471 54.4808 402.245 51.7463 402.245 46.8811 402.245 45.5871 402.53 43.7756 403.099 41.4465L403.901 38.2375C404.333 36.5122 404.548 35.2787 404.548 34.5368 404.548 33.8467 404.423 33.355 404.173 33.0617 403.923 32.7684 403.565 32.6218 403.099 32.6218 402.564 32.6218 402.051 32.79 401.559 33.1264 401.068 33.4628 400.572 33.8898 400.071 34.4074L398.648 32.9841C399.942 31.7592 401.068 30.8965 402.025 30.3962 402.983 29.8959 403.945 29.6457 404.911 29.6457 406.205 29.6457 407.201 30.0339 407.9 30.8103 408.598 31.5866 408.948 32.708 408.948 34.1745 408.948 35.2097 408.732 36.6071 408.301 38.3669L407.343 42.197C407.171 42.8871 407.007 43.7238 406.852 44.7072 406.696 45.6906 406.619 46.4929 406.619 47.114 406.619 48.9427 407.11 50.31 408.094 51.2158 409.077 52.1215 410.526 52.6693 412.441 52.8591Z" fill-rule="evenodd"/><text fill="#000000" fill-opacity="0" font-family="Arial,Arial_MSFontService,sans-serif" font-size="47.4102" x="398.648" y="60.0017">𝜓</text><path d="M447.148 41.1593 448.309 41.1593C448.284 41.8576 448.265 42.4828 448.252 43.0351 448.239 43.5873 448.23 44.1237 448.224 44.6442 448.217 45.1647 448.214 45.6789 448.214 46.1867L448.214 60.6593C448.214 61.0529 448.227 61.3925 448.252 61.6781 448.277 61.9638 448.319 62.205 448.376 62.4018 448.433 62.5985 448.509 62.7667 448.604 62.9064 448.7 63.046 448.811 63.1666 448.938 63.2682 449.09 63.4206 449.293 63.538 449.547 63.6205 449.801 63.703 450.125 63.7729 450.518 63.83 450.912 63.8871 451.385 63.9315 451.937 63.9633 452.489 63.995 453.152 64.0172 453.927 64.0299L453.927 65.6867 438.826 65.6867 438.826 64.0299C439.575 64.0045 440.21 63.976 440.73 63.9442 441.251 63.9125 441.695 63.8681 442.063 63.8109 442.431 63.7538 442.726 63.6903 442.949 63.6205 443.171 63.5507 443.364 63.465 443.529 63.3634 443.707 63.2492 443.86 63.1254 443.986 62.9921 444.113 62.8588 444.215 62.6906 444.291 62.4874 444.367 62.2843 444.428 62.0368 444.472 61.7448 444.517 61.4528 444.539 61.091 444.539 60.6593L444.539 47.0055C444.539 46.5104 444.444 46.1613 444.253 45.9582 444.063 45.755 443.79 45.6535 443.434 45.6535 443.041 45.6535 442.457 45.8566 441.682 46.2628 440.908 46.6691 439.905 47.2721 438.673 48.0719 438.508 47.7799 438.356 47.4879 438.216 47.1959 438.077 46.904 437.931 46.6056 437.778 46.3009 439.353 45.4376 440.911 44.5775 442.454 43.7206 443.996 42.8637 445.561 42.0099 447.148 41.1593Z" fill-rule="evenodd"/><text fill="#000000" fill-opacity="0" font-family="Arial,Arial_MSFontService,sans-serif" font-size="24.5273" x="437.778" y="62.6208">1</text><path d="M487.249 10.606C488.569 10.606 489.696 10.7552 490.629 11.0535 491.562 11.3519 492.321 11.7549 492.905 12.2628 493.489 12.7706 493.911 13.3799 494.171 14.0909 494.431 14.8018 494.561 15.5699 494.561 16.3951 494.561 16.8902 494.527 17.3504 494.457 17.7757 494.387 18.201 494.266 18.6199 494.095 19.0325 493.923 19.4451 493.698 19.8609 493.419 20.2799 493.14 20.6988 492.79 21.1431 492.371 21.6129 492.054 22.0191 491.642 22.4888 491.134 23.022 490.626 23.5552 490.07 24.1265 489.467 24.7359 488.864 25.3453 488.233 25.98 487.573 26.6402 486.913 27.3004 486.271 27.9542 485.649 28.6016 485.027 29.2491 484.456 29.8775 483.935 30.4869 483.415 31.0963 482.99 31.6549 482.66 32.1627L489.705 32.1627C490.302 32.1627 490.778 32.1404 491.134 32.096 491.489 32.0516 491.784 31.9532 492.019 31.8008 492.254 31.6485 492.454 31.4168 492.619 31.1058 492.784 30.7947 492.975 30.3663 493.19 29.8204L494.961 29.8204C494.898 30.7217 494.838 31.6295 494.78 32.5435 494.723 33.4576 494.663 34.3653 494.6 35.2667L478.47 35.2667 478.47 34.2764C478.775 33.5909 479.13 32.9149 479.537 32.2484 479.943 31.5819 480.4 30.9058 480.908 30.2203 481.415 29.5347 481.993 28.827 482.641 28.097 483.288 27.367 484.005 26.6085 484.792 25.8214 485.986 24.628 486.957 23.6092 487.706 22.765 488.455 21.9207 489.045 21.1685 489.477 20.5084 489.909 19.8482 490.204 19.2388 490.362 18.6802 490.521 18.1216 490.6 17.525 490.6 16.8902 490.6 16.2427 490.508 15.6461 490.324 15.1002 490.14 14.5543 489.877 14.0909 489.534 13.71 489.191 13.3292 488.757 13.0308 488.23 12.815 487.703 12.5992 487.097 12.4913 486.411 12.4913 485.23 12.4913 484.24 12.8118 483.44 13.4529 482.641 14.0941 482.018 15.024 481.574 16.2427L479.079 16.2427 479.079 12.5294C480.704 11.8565 482.199 11.3677 483.564 11.0631 484.929 10.7584 486.157 10.606 487.249 10.606Z" fill-rule="evenodd"/><text fill="#000000" fill-opacity="0" font-family="Arial,Arial_MSFontService,sans-serif" font-size="24.6606" x="478.47" y="32.1841">2</text><path d="M530.407 23.0207 534.082 23.0207 534.082 37.927 548.186 37.927 548.186 41.3689 534.082 41.3689 534.082 56.2751 530.407 56.2751 530.407 41.3689 516.303 41.3689 516.303 37.927 530.407 37.927Z" fill-rule="evenodd"/><text fill="#000000" fill-opacity="0" font-family="Arial,Arial_MSFontService,sans-serif" font-size="33.2544" x="516.303" y="52.1183">+</text><path d="M648.379 15.5673 652.364 15.5673 652.364 63.7279 648.379 63.7279ZM570.526 15.5673 574.511 15.5673 574.511 63.7279 570.526 63.7279Z" fill="#836967" fill-rule="evenodd"/><path d="M602.952 18.5178 607.041 18.5178 599.484 52.8073C601.917 52.6521 604.035 51.9145 605.838 50.5947 607.641 49.2749 609.038 47.4633 610.03 45.1601 611.022 42.8569 611.518 40.2647 611.518 37.3835 611.518 35.3477 611.199 33.3378 610.561 31.3537L610.871 30.0598 615.452 30.0598C615.711 31.3192 615.84 32.7857 615.84 34.4592 615.84 38.3238 615.15 41.8347 613.77 44.9919 612.389 48.1491 610.423 50.6076 607.869 52.3674 605.316 54.1272 602.357 55.0588 598.993 55.1623L596.612 65.9279 592.523 65.9279 594.904 55.0847C588.451 54.4808 585.225 51.7463 585.225 46.8811 585.225 45.5871 585.51 43.7756 586.079 41.4465L586.881 38.2375C587.313 36.5122 587.528 35.2787 587.528 34.5368 587.528 33.8467 587.403 33.355 587.153 33.0617 586.903 32.7684 586.545 32.6218 586.079 32.6218 585.544 32.6218 585.031 32.79 584.539 33.1264 584.048 33.4628 583.552 33.8898 583.051 34.4074L581.628 32.9841C582.922 31.7592 584.048 30.8965 585.005 30.3962 585.963 29.8959 586.925 29.6457 587.891 29.6457 589.185 29.6457 590.181 30.0339 590.88 30.8103 591.578 31.5866 591.928 32.708 591.928 34.1745 591.928 35.2097 591.712 36.6071 591.281 38.3669L590.323 42.197C590.151 42.8871 589.987 43.7238 589.832 44.7072 589.676 45.6906 589.599 46.4929 589.599 47.114 589.599 48.9427 590.09 50.31 591.074 51.2158 592.057 52.1215 593.506 52.6693 595.422 52.8591Z" fill-rule="evenodd"/><text fill="#000000" fill-opacity="0" font-family="Arial,Arial_MSFontService,sans-serif" font-size="47.4102" x="581.628" y="60.0017">𝜓</text><path d="M630.128 41.1593 631.289 41.1593C631.264 41.8576 631.245 42.4828 631.232 43.0351 631.219 43.5873 631.21 44.1237 631.204 44.6442 631.197 45.1647 631.194 45.6789 631.194 46.1867L631.194 60.6593C631.194 61.0529 631.207 61.3925 631.232 61.6781 631.258 61.9638 631.299 62.205 631.356 62.4018 631.413 62.5985 631.489 62.7667 631.584 62.9064 631.68 63.046 631.791 63.1666 631.918 63.2682 632.07 63.4206 632.273 63.538 632.527 63.6205 632.781 63.703 633.105 63.7729 633.498 63.83 633.892 63.8871 634.365 63.9315 634.917 63.9633 635.469 63.995 636.133 64.0172 636.907 64.0299L636.907 65.6867 621.806 65.6867 621.806 64.0299C622.555 64.0045 623.19 63.976 623.71 63.9442 624.231 63.9125 624.675 63.8681 625.043 63.8109 625.411 63.7538 625.706 63.6903 625.929 63.6205 626.151 63.5507 626.344 63.465 626.509 63.3634 626.687 63.2492 626.84 63.1254 626.966 62.9921 627.093 62.8588 627.195 62.6906 627.271 62.4874 627.347 62.2843 627.408 62.0368 627.452 61.7448 627.497 61.4528 627.519 61.091 627.519 60.6593L627.519 47.0055C627.519 46.5104 627.424 46.1613 627.233 45.9582 627.043 45.755 626.77 45.6535 626.414 45.6535 626.021 45.6535 625.437 45.8566 624.662 46.2628 623.888 46.6691 622.885 47.2721 621.654 48.0719 621.488 47.7799 621.336 47.4879 621.196 47.1959 621.057 46.904 620.911 46.6056 620.758 46.3009 622.333 45.4376 623.891 44.5775 625.434 43.7206 626.976 42.8637 628.541 42.0099 630.128 41.1593Z" fill-rule="evenodd"/><text fill="#000000" fill-opacity="0" font-family="Arial,Arial_MSFontService,sans-serif" font-size="24.5273" x="620.758" y="62.6208">1</text><path d="M667.03 16.9283 669.543 16.9283 668.991 22.8887 673.885 19.442 675.123 21.5748 669.696 24.1075 675.123 26.6592 673.885 28.773 668.991 25.3262 669.543 31.2867 667.03 31.2867 667.601 25.3262 662.688 28.773 661.431 26.6592 666.877 24.1075 661.431 21.5748 662.688 19.442 667.601 22.8887Z" fill-rule="evenodd"/><text fill="#000000" fill-opacity="0" font-family="Arial,Arial_MSFontService,sans-serif" font-size="14.3584" x="661.431" y="29.4919">∗</text><path d="M765.386 15.5673 769.371 15.5673 769.371 63.7279 765.386 63.7279ZM686.299 15.5673 690.284 15.5673 690.284 63.7279 686.299 63.7279Z" fill="#836967" fill-rule="evenodd"/><path d="M718.726 18.5178 722.814 18.5178 715.258 52.8073C717.69 52.6521 719.808 51.9145 721.611 50.5947 723.414 49.2749 724.811 47.4633 725.803 45.1601 726.795 42.8569 727.292 40.2647 727.292 37.3835 727.292 35.3477 726.972 33.3378 726.334 31.3537L726.645 30.0598 731.225 30.0598C731.484 31.3192 731.613 32.7857 731.613 34.4592 731.613 38.3238 730.923 41.8347 729.543 44.9919 728.163 48.1491 726.196 50.6076 723.643 52.3674 721.089 54.1272 718.13 55.0588 714.766 55.1623L712.385 65.9279 708.296 65.9279 710.677 55.0847C704.225 54.4808 700.999 51.7463 700.999 46.8811 700.999 45.5871 701.283 43.7756 701.853 41.4465L702.655 38.2375C703.086 36.5122 703.302 35.2787 703.302 34.5368 703.302 33.8467 703.177 33.355 702.927 33.0617 702.676 32.7684 702.318 32.6218 701.853 32.6218 701.318 32.6218 700.804 32.79 700.313 33.1264 699.821 33.4628 699.325 33.8898 698.825 34.4074L697.401 32.9841C698.695 31.7592 699.821 30.8965 700.779 30.3962 701.736 29.8959 702.698 29.6457 703.664 29.6457 704.958 29.6457 705.954 30.0339 706.653 30.8103 707.352 31.5866 707.701 32.708 707.701 34.1745 707.701 35.2097 707.486 36.6071 707.054 38.3669L706.097 42.197C705.924 42.8871 705.76 43.7238 705.605 44.7072 705.45 45.6906 705.372 46.4929 705.372 47.114 705.372 48.9427 705.864 50.31 706.847 51.2158 707.831 52.1215 709.28 52.6693 711.195 52.8591Z" fill-rule="evenodd"/><text fill="#000000" fill-opacity="0" font-family="Arial,Arial_MSFontService,sans-serif" font-size="47.4102" x="697.401" y="60.0017">𝜓</text><path d="M745.649 41.026C746.969 41.026 748.096 41.1752 749.029 41.4735 749.962 41.7719 750.721 42.1749 751.305 42.6828 751.889 43.1906 752.311 43.7999 752.571 44.5109 752.831 45.2218 752.961 45.9899 752.961 46.8151 752.961 47.3102 752.927 47.7704 752.857 48.1957 752.787 48.621 752.666 49.0399 752.495 49.4525 752.323 49.8651 752.098 50.2809 751.819 50.6999 751.54 51.1188 751.19 51.5631 750.771 52.0329 750.454 52.4391 750.042 52.9088 749.534 53.442 749.026 53.9752 748.47 54.5465 747.867 55.1559 747.264 55.7653 746.633 56.4 745.973 57.0602 745.312 57.7204 744.671 58.3742 744.049 59.0216 743.427 59.6691 742.856 60.2975 742.335 60.9069 741.815 61.5163 741.39 62.0749 741.06 62.5827L748.105 62.5827C748.702 62.5827 749.178 62.5604 749.534 62.516 749.889 62.4716 750.184 62.3732 750.419 62.2208 750.654 62.0685 750.854 61.8368 751.019 61.5258 751.184 61.2147 751.375 60.7863 751.59 60.2404L753.361 60.2404C753.298 61.1417 753.238 62.0495 753.18 62.9635 753.123 63.8776 753.063 64.7853 753 65.6867L736.87 65.6867 736.87 64.6964C737.175 64.0109 737.53 63.3349 737.937 62.6684 738.343 62.0019 738.8 61.3258 739.308 60.6403 739.815 59.9547 740.393 59.247 741.041 58.517 741.688 57.787 742.405 57.0285 743.192 56.2414 744.386 55.048 745.357 54.0292 746.106 53.185 746.855 52.3407 747.445 51.5885 747.877 50.9284 748.309 50.2682 748.604 49.6588 748.762 49.1002 748.921 48.5416 749 47.945 749 47.3102 749 46.6627 748.908 46.0661 748.724 45.5202 748.54 44.9743 748.277 44.5109 747.934 44.13 747.591 43.7492 747.156 43.4508 746.63 43.235 746.103 43.0192 745.497 42.9113 744.811 42.9113 743.63 42.9113 742.64 43.2318 741.84 43.8729 741.041 44.5141 740.418 45.444 739.974 46.6627L737.479 46.6627 737.479 42.9494C739.104 42.2765 740.599 41.7877 741.964 41.4831 743.329 41.1784 744.557 41.026 745.649 41.026Z" fill-rule="evenodd"/><text fill="#000000" fill-opacity="0" font-family="Arial,Arial_MSFontService,sans-serif" font-size="24.6606" x="736.87" y="62.6041">2</text><path d="M805.68 23.0207 809.355 23.0207 809.355 37.927 823.459 37.927 823.459 41.3689 809.355 41.3689 809.355 56.2751 805.68 56.2751 805.68 41.3689 791.576 41.3689 791.576 37.927 805.68 37.927Z" fill-rule="evenodd"/><text fill="#000000" fill-opacity="0" font-family="Arial,Arial_MSFontService,sans-serif" font-size="33.2544" x="791.576" y="52.1183">+</text><path d="M924.886 15.5673 928.871 15.5673 928.871 63.7279 924.886 63.7279ZM845.799 15.5673 849.784 15.5673 849.784 63.7279 845.799 63.7279Z" fill="#836967" fill-rule="evenodd"/><path d="M878.226 18.5178 882.314 18.5178 874.758 52.8073C877.19 52.6521 879.308 51.9145 881.111 50.5947 882.914 49.2749 884.311 47.4633 885.303 45.1601 886.295 42.8569 886.792 40.2647 886.792 37.3835 886.792 35.3477 886.472 33.3378 885.834 31.3537L886.145 30.0598 890.725 30.0598C890.984 31.3192 891.113 32.7857 891.113 34.4592 891.113 38.3238 890.423 41.8347 889.043 44.9919 887.663 48.1491 885.696 50.6076 883.143 52.3674 880.589 54.1272 877.63 55.0588 874.266 55.1623L871.885 65.9279 867.796 65.9279 870.177 55.0847C863.725 54.4808 860.499 51.7463 860.499 46.8811 860.499 45.5871 860.783 43.7756 861.353 41.4465L862.155 38.2375C862.586 36.5122 862.802 35.2787 862.802 34.5368 862.802 33.8467 862.677 33.355 862.427 33.0617 862.176 32.7684 861.818 32.6218 861.353 32.6218 860.818 32.6218 860.304 32.79 859.813 33.1264 859.321 33.4628 858.825 33.8898 858.325 34.4074L856.901 32.9841C858.195 31.7592 859.321 30.8965 860.279 30.3962 861.236 29.8959 862.198 29.6457 863.164 29.6457 864.458 29.6457 865.454 30.0339 866.153 30.8103 866.852 31.5866 867.201 32.708 867.201 34.1745 867.201 35.2097 866.986 36.6071 866.554 38.3669L865.597 42.197C865.424 42.8871 865.26 43.7238 865.105 44.7072 864.95 45.6906 864.872 46.4929 864.872 47.114 864.872 48.9427 865.364 50.31 866.347 51.2158 867.331 52.1215 868.78 52.6693 870.695 52.8591Z" fill-rule="evenodd"/><text fill="#000000" fill-opacity="0" font-family="Arial,Arial_MSFontService,sans-serif" font-size="47.4102" x="856.901" y="60.0017">𝜓</text><path d="M905.149 41.026C906.469 41.026 907.596 41.1752 908.529 41.4735 909.462 41.7719 910.221 42.1749 910.805 42.6828 911.389 43.1906 911.811 43.7999 912.071 44.5109 912.331 45.2218 912.461 45.9899 912.461 46.8151 912.461 47.3102 912.427 47.7704 912.357 48.1957 912.287 48.621 912.166 49.0399 911.995 49.4525 911.823 49.8651 911.598 50.2809 911.319 50.6999 911.04 51.1188 910.69 51.5631 910.271 52.0329 909.954 52.4391 909.542 52.9088 909.034 53.442 908.526 53.9752 907.97 54.5465 907.367 55.1559 906.764 55.7653 906.133 56.4 905.473 57.0602 904.812 57.7204 904.171 58.3742 903.549 59.0216 902.927 59.6691 902.356 60.2975 901.835 60.9069 901.315 61.5163 900.89 62.0749 900.56 62.5827L907.605 62.5827C908.202 62.5827 908.678 62.5604 909.034 62.516 909.389 62.4716 909.684 62.3732 909.919 62.2208 910.154 62.0685 910.354 61.8368 910.519 61.5258 910.684 61.2147 910.875 60.7863 911.09 60.2404L912.861 60.2404C912.798 61.1417 912.738 62.0495 912.68 62.9635 912.623 63.8776 912.563 64.7853 912.5 65.6867L896.37 65.6867 896.37 64.6964C896.675 64.0109 897.03 63.3349 897.437 62.6684 897.843 62.0019 898.3 61.3258 898.808 60.6403 899.315 59.9547 899.893 59.247 900.541 58.517 901.188 57.787 901.905 57.0285 902.692 56.2414 903.886 55.048 904.857 54.0292 905.606 53.185 906.355 52.3407 906.945 51.5885 907.377 50.9284 907.809 50.2682 908.104 49.6588 908.262 49.1002 908.421 48.5416 908.5 47.945 908.5 47.3102 908.5 46.6627 908.408 46.0661 908.224 45.5202 908.04 44.9743 907.777 44.5109 907.434 44.13 907.091 43.7492 906.656 43.4508 906.13 43.235 905.603 43.0192 904.997 42.9113 904.311 42.9113 903.13 42.9113 902.14 43.2318 901.34 43.8729 900.541 44.5141 899.918 45.444 899.474 46.6627L896.979 46.6627 896.979 42.9494C898.604 42.2765 900.099 41.7877 901.464 41.4831 902.829 41.1784 904.057 41.026 905.149 41.026Z" fill-rule="evenodd"/><text fill="#000000" fill-opacity="0" font-family="Arial,Arial_MSFontService,sans-serif" font-size="24.6606" x="896.37" y="62.6041">2</text><path d="M943.536 16.9283 946.05 16.9283 945.498 22.8887 950.392 19.442 951.63 21.5748 946.202 24.1075 951.63 26.6592 950.392 28.773 945.498 25.3262 946.05 31.2867 943.536 31.2867 944.108 25.3262 939.195 28.773 937.938 26.6592 943.384 24.1075 937.938 21.5748 939.195 19.442 944.108 22.8887Z" fill-rule="evenodd"/><text fill="#000000" fill-opacity="0" font-family="Arial,Arial_MSFontService,sans-serif" font-size="14.3584" x="937.938" y="29.4919">∗</text><path d="M1040.66 15.5673 1044.64 15.5673 1044.64 63.7279 1040.66 63.7279ZM962.806 15.5673 966.791 15.5673 966.791 63.7279 962.806 63.7279Z" fill="#836967" fill-rule="evenodd"/><path d="M995.232 18.5178 999.321 18.5178 991.764 52.8073C994.197 52.6521 996.315 51.9145 998.118 50.5947 999.921 49.2749 1001.32 47.4633 1002.31 45.1601 1003.3 42.8569 1003.8 40.2647 1003.8 37.3835 1003.8 35.3477 1003.48 33.3378 1002.84 31.3537L1003.15 30.0598 1007.73 30.0598C1007.99 31.3192 1008.12 32.7857 1008.12 34.4592 1008.12 38.3238 1007.43 41.8347 1006.05 44.9919 1004.67 48.1491 1002.7 50.6076 1000.15 52.3674 997.596 54.1272 994.637 55.0588 991.273 55.1623L988.892 65.9279 984.803 65.9279 987.184 55.0847C980.731 54.4808 977.505 51.7463 977.505 46.8811 977.505 45.5871 977.79 43.7756 978.359 41.4465L979.161 38.2375C979.593 36.5122 979.808 35.2787 979.808 34.5368 979.808 33.8467 979.683 33.355 979.433 33.0617 979.183 32.7684 978.825 32.6218 978.359 32.6218 977.824 32.6218 977.311 32.79 976.819 33.1264 976.328 33.4628 975.832 33.8898 975.331 34.4074L973.908 32.9841C975.202 31.7592 976.328 30.8965 977.285 30.3962 978.243 29.8959 979.205 29.6457 980.171 29.6457 981.465 29.6457 982.461 30.0339 983.16 30.8103 983.858 31.5866 984.208 32.708 984.208 34.1745 984.208 35.2097 983.992 36.6071 983.561 38.3669L982.603 42.197C982.431 42.8871 982.267 43.7238 982.112 44.7072 981.956 45.6906 981.879 46.4929 981.879 47.114 981.879 48.9427 982.37 50.31 983.354 51.2158 984.337 52.1215 985.786 52.6693 987.701 52.8591Z" fill-rule="evenodd"/><text fill="#000000" fill-opacity="0" font-family="Arial,Arial_MSFontService,sans-serif" font-size="47.4102" x="973.908" y="60.0017">𝜓</text><path d="M1022.41 41.1593 1023.57 41.1593C1023.54 41.8576 1023.52 42.4828 1023.51 43.0351 1023.5 43.5873 1023.49 44.1237 1023.48 44.6442 1023.48 45.1647 1023.47 45.6789 1023.47 46.1867L1023.47 60.6593C1023.47 61.0529 1023.49 61.3925 1023.51 61.6781 1023.54 61.9638 1023.58 62.205 1023.64 62.4018 1023.69 62.5985 1023.77 62.7667 1023.86 62.9064 1023.96 63.046 1024.07 63.1666 1024.2 63.2682 1024.35 63.4206 1024.55 63.538 1024.81 63.6205 1025.06 63.703 1025.38 63.7729 1025.78 63.83 1026.17 63.8871 1026.64 63.9315 1027.2 63.9633 1027.75 63.995 1028.41 64.0172 1029.19 64.0299L1029.19 65.6867 1014.09 65.6867 1014.09 64.0299C1014.83 64.0045 1015.47 63.976 1015.99 63.9442 1016.51 63.9125 1016.96 63.8681 1017.32 63.8109 1017.69 63.7538 1017.99 63.6903 1018.21 63.6205 1018.43 63.5507 1018.62 63.465 1018.79 63.3634 1018.97 63.2492 1019.12 63.1254 1019.25 62.9921 1019.37 62.8588 1019.48 62.6906 1019.55 62.4874 1019.63 62.2843 1019.69 62.0368 1019.73 61.7448 1019.78 61.4528 1019.8 61.091 1019.8 60.6593L1019.8 47.0055C1019.8 46.5104 1019.7 46.1613 1019.51 45.9582 1019.32 45.755 1019.05 45.6535 1018.69 45.6535 1018.3 45.6535 1017.72 45.8566 1016.94 46.2628 1016.17 46.6691 1015.16 47.2721 1013.93 48.0719 1013.77 47.7799 1013.62 47.4879 1013.48 47.1959 1013.34 46.904 1013.19 46.6056 1013.04 46.3009 1014.61 45.4376 1016.17 44.5775 1017.71 43.7206 1019.26 42.8637 1020.82 42.0099 1022.41 41.1593Z" fill-rule="evenodd"/><text fill="#000000" fill-opacity="0" font-family="Arial,Arial_MSFontService,sans-serif" font-size="24.5273" x="1013.04" y="62.6208">1</text><path d="M1080.95 23.0207 1084.63 23.0207 1084.63 37.927 1098.73 37.927 1098.73 41.3689 1084.63 41.3689 1084.63 56.2751 1080.95 56.2751 1080.95 41.3689 1066.85 41.3689 1066.85 37.927 1080.95 37.927Z" fill-rule="evenodd"/><text fill="#000000" fill-opacity="0" font-family="Arial,Arial_MSFontService,sans-serif" font-size="33.2544" x="1066.85" y="52.1183">+</text><path d="M1200.16 15.5673 1204.14 15.5673 1204.14 63.7279 1200.16 63.7279ZM1121.07 15.5673 1125.06 15.5673 1125.06 63.7279 1121.07 63.7279Z" fill="#836967" fill-rule="evenodd"/><path d="M1153.5 18.5178 1157.59 18.5178 1150.03 52.8073C1152.46 52.6521 1154.58 51.9145 1156.38 50.5947 1158.19 49.2749 1159.58 47.4633 1160.58 45.1601 1161.57 42.8569 1162.06 40.2647 1162.06 37.3835 1162.06 35.3477 1161.75 33.3378 1161.11 31.3537L1161.42 30.0598 1166 30.0598C1166.26 31.3192 1166.39 32.7857 1166.39 34.4592 1166.39 38.3238 1165.7 41.8347 1164.32 44.9919 1162.94 48.1491 1160.97 50.6076 1158.42 52.3674 1155.86 54.1272 1152.9 55.0588 1149.54 55.1623L1147.16 65.9279 1143.07 65.9279 1145.45 55.0847C1139 54.4808 1135.77 51.7463 1135.77 46.8811 1135.77 45.5871 1136.06 43.7756 1136.63 41.4465L1137.43 38.2375C1137.86 36.5122 1138.08 35.2787 1138.08 34.5368 1138.08 33.8467 1137.95 33.355 1137.7 33.0617 1137.45 32.7684 1137.09 32.6218 1136.63 32.6218 1136.09 32.6218 1135.58 32.79 1135.09 33.1264 1134.59 33.4628 1134.1 33.8898 1133.6 34.4074L1132.17 32.9841C1133.47 31.7592 1134.59 30.8965 1135.55 30.3962 1136.51 29.8959 1137.47 29.6457 1138.44 29.6457 1139.73 29.6457 1140.73 30.0339 1141.43 30.8103 1142.13 31.5866 1142.47 32.708 1142.47 34.1745 1142.47 35.2097 1142.26 36.6071 1141.83 38.3669L1140.87 42.197C1140.7 42.8871 1140.53 43.7238 1140.38 44.7072 1140.22 45.6906 1140.15 46.4929 1140.15 47.114 1140.15 48.9427 1140.64 50.31 1141.62 51.2158 1142.6 52.1215 1144.05 52.6693 1145.97 52.8591Z" fill-rule="evenodd"/><text fill="#000000" fill-opacity="0" font-family="Arial,Arial_MSFontService,sans-serif" font-size="47.4102" x="1132.17" y="60.0017">𝜓</text><path d="M1180.42 41.026C1181.74 41.026 1182.87 41.1752 1183.8 41.4735 1184.74 41.7719 1185.49 42.1749 1186.08 42.6828 1186.66 43.1906 1187.08 43.7999 1187.34 44.5109 1187.6 45.2218 1187.73 45.9899 1187.73 46.8151 1187.73 47.3102 1187.7 47.7704 1187.63 48.1957 1187.56 48.621 1187.44 49.0399 1187.27 49.4525 1187.1 49.8651 1186.87 50.2809 1186.59 50.6999 1186.31 51.1188 1185.96 51.5631 1185.54 52.0329 1185.23 52.4391 1184.81 52.9088 1184.31 53.442 1183.8 53.9752 1183.24 54.5465 1182.64 55.1559 1182.04 55.7653 1181.41 56.4 1180.75 57.0602 1180.09 57.7204 1179.44 58.3742 1178.82 59.0216 1178.2 59.6691 1177.63 60.2975 1177.11 60.9069 1176.59 61.5163 1176.16 62.0749 1175.83 62.5827L1182.88 62.5827C1183.48 62.5827 1183.95 62.5604 1184.31 62.516 1184.66 62.4716 1184.96 62.3732 1185.19 62.2208 1185.43 62.0685 1185.63 61.8368 1185.79 61.5258 1185.96 61.2147 1186.15 60.7863 1186.36 60.2404L1188.13 60.2404C1188.07 61.1417 1188.01 62.0495 1187.95 62.9635 1187.9 63.8776 1187.84 64.7853 1187.77 65.6867L1171.64 65.6867 1171.64 64.6964C1171.95 64.0109 1172.3 63.3349 1172.71 62.6684 1173.12 62.0019 1173.57 61.3258 1174.08 60.6403 1174.59 59.9547 1175.17 59.247 1175.81 58.517 1176.46 57.787 1177.18 57.0285 1177.97 56.2414 1179.16 55.048 1180.13 54.0292 1180.88 53.185 1181.63 52.3407 1182.22 51.5885 1182.65 50.9284 1183.08 50.2682 1183.38 49.6588 1183.54 49.1002 1183.69 48.5416 1183.77 47.945 1183.77 47.3102 1183.77 46.6627 1183.68 46.0661 1183.5 45.5202 1183.31 44.9743 1183.05 44.5109 1182.71 44.13 1182.36 43.7492 1181.93 43.4508 1181.4 43.235 1180.88 43.0192 1180.27 42.9113 1179.58 42.9113 1178.4 42.9113 1177.41 43.2318 1176.61 43.8729 1175.81 44.5141 1175.19 45.444 1174.75 46.6627L1172.25 46.6627 1172.25 42.9494C1173.88 42.2765 1175.37 41.7877 1176.74 41.4831 1178.1 41.1784 1179.33 41.026 1180.42 41.026Z" fill-rule="evenodd"/><text fill="#000000" fill-opacity="0" font-family="Arial,Arial_MSFontService,sans-serif" font-size="24.6606" x="1171.64" y="62.6041">2</text><path d="M1222.01 10.606C1223.33 10.606 1224.46 10.7552 1225.39 11.0535 1226.32 11.3519 1227.08 11.7549 1227.66 12.2628 1228.25 12.7706 1228.67 13.3799 1228.93 14.0909 1229.19 14.8018 1229.32 15.5699 1229.32 16.3951 1229.32 16.8902 1229.29 17.3504 1229.22 17.7757 1229.15 18.201 1229.03 18.6199 1228.85 19.0325 1228.68 19.4451 1228.46 19.8609 1228.18 20.2799 1227.9 20.6988 1227.55 21.1431 1227.13 21.6129 1226.81 22.0191 1226.4 22.4888 1225.89 23.022 1225.39 23.5552 1224.83 24.1265 1224.23 24.7359 1223.62 25.3453 1222.99 25.98 1222.33 26.6402 1221.67 27.3004 1221.03 27.9542 1220.41 28.6016 1219.79 29.2491 1219.22 29.8775 1218.7 30.4869 1218.17 31.0963 1217.75 31.6549 1217.42 32.1627L1224.47 32.1627C1225.06 32.1627 1225.54 32.1404 1225.89 32.096 1226.25 32.0516 1226.54 31.9532 1226.78 31.8008 1227.01 31.6485 1227.21 31.4168 1227.38 31.1058 1227.54 30.7947 1227.73 30.3663 1227.95 29.8204L1229.72 29.8204C1229.66 30.7217 1229.6 31.6295 1229.54 32.5435 1229.48 33.4576 1229.42 34.3653 1229.36 35.2667L1213.23 35.2667 1213.23 34.2764C1213.53 33.5909 1213.89 32.9149 1214.3 32.2484 1214.7 31.5819 1215.16 30.9058 1215.67 30.2203 1216.18 29.5347 1216.75 28.827 1217.4 28.097 1218.05 27.367 1218.77 26.6085 1219.55 25.8214 1220.75 24.628 1221.72 23.6092 1222.47 22.765 1223.21 21.9207 1223.81 21.1685 1224.24 20.5084 1224.67 19.8482 1224.96 19.2388 1225.12 18.6802 1225.28 18.1216 1225.36 17.525 1225.36 16.8902 1225.36 16.2427 1225.27 15.6461 1225.08 15.1002 1224.9 14.5543 1224.64 14.0909 1224.29 13.71 1223.95 13.3292 1223.52 13.0308 1222.99 12.815 1222.46 12.5992 1221.86 12.4913 1221.17 12.4913 1219.99 12.4913 1219 12.8118 1218.2 13.4529 1217.4 14.0941 1216.78 15.024 1216.33 16.2427L1213.84 16.2427 1213.84 12.5294C1215.46 11.8565 1216.96 11.3677 1218.32 11.0631 1219.69 10.7584 1220.92 10.606 1222.01 10.606Z" fill-rule="evenodd"/><text fill="#000000" fill-opacity="0" font-family="Arial,Arial_MSFontService,sans-serif" font-size="24.6606" x="1213.23" y="32.1841">2</text></g></svg>